<?xml version="1.0" encoding="utf-8"?>
<!-- Generator: Adobe Illustrator 15.0.0, SVG Export Plug-In . SVG Version: 6.00 Build 0)  -->
<!DOCTYPE svg PUBLIC "-//W3C//DTD SVG 1.1//EN" "http://www.w3.org/Graphics/SVG/1.1/DTD/svg11.dtd">
<svg version="1.1" id="Layer_1" xmlns="http://www.w3.org/2000/svg" xmlns:xlink="http://www.w3.org/1999/xlink" x="0px" y="0px"
	 width="100px" height="55px" viewBox="0 0 100 55" enable-background="new 0 0 100 55" xml:space="preserve">
<g>
	<g>
		<g>
			<path fill="#FFFFFF" d="M63.979,10.777h-0.016c-0.332,0.493-0.818,0.695-1.352,0.695c-1.158,0-1.943-1.042-1.943-2.199
				s0.729-2.184,1.927-2.184c0.534,0,0.931,0.17,1.319,0.679h0.017V5.278h1.165v6.082h-1.117V10.777z M62.902,8.076
				c-0.672,0-1.02,0.598-1.02,1.229c0,0.655,0.364,1.229,1.052,1.229c0.664,0,1.036-0.55,1.036-1.245
				C63.971,8.667,63.631,8.076,62.902,8.076z"/>
		</g>
		<g>
			<path fill="#FFFFFF" d="M66.852,5.229c0.348,0,0.68,0.299,0.68,0.671c0,0.356-0.308,0.687-0.68,0.687
				c-0.389,0-0.68-0.348-0.68-0.671C66.172,5.577,66.463,5.229,66.852,5.229z M66.269,7.202h1.165v4.158h-1.165V7.202z"/>
		</g>
		<g>
			<path fill="#FFFFFF" d="M70.834,8.489c-0.017-0.347-0.268-0.559-0.713-0.559c-0.308,0-0.614,0.122-0.614,0.373
				c0,0.744,2.589,0.097,2.589,1.779c0,0.324-0.178,1.391-1.894,1.391c-0.583,0-1.748-0.178-1.846-1.406h1.166
				c0.017,0.404,0.372,0.566,0.72,0.566c0.3,0,0.688-0.089,0.688-0.428c0-0.696-2.493-0.065-2.493-1.78
				c0-0.638,0.494-1.334,1.724-1.334c1.069,0,1.773,0.468,1.838,1.375L70.834,8.489z"/>
		</g>
		<g>
			<path fill="#FFFFFF" d="M73.034,7.202h1.117v0.801h0.016c0.22-0.589,0.648-0.914,1.198-0.914h0.162v1.132h-0.26
				c-0.599,0-1.067,0.364-1.067,1.1v2.039h-1.166V7.202z"/>
		</g>
		<g>
			<path fill="#FFFFFF" d="M78.886,10.817H78.87c-0.349,0.501-0.761,0.655-1.23,0.655c-1.004,0-1.457-0.646-1.457-1.447V7.202h1.166
				v2.532c0,0.599,0.363,0.8,0.728,0.8c0.47,0,0.762-0.404,0.762-0.97V7.202h1.165v4.158h-1.117V10.817z"/>
		</g>
		<g>
			<path fill="#FFFFFF" d="M81.192,7.202h1.116v0.583h0.017c0.332-0.494,0.817-0.696,1.351-0.696c1.158,0,1.943,1.043,1.943,2.2
				s-0.729,2.183-1.927,2.183c-0.533,0-0.931-0.17-1.319-0.679h-0.016v2.377h-1.165V7.202z M83.354,8.027
				c-0.664,0-1.037,0.55-1.037,1.246c0,0.623,0.341,1.212,1.069,1.212c0.671,0,1.019-0.598,1.019-1.229
				C84.404,8.602,84.04,8.027,83.354,8.027z"/>
		</g>
		<g>
			<path fill="#FFFFFF" d="M86.104,7.202h0.534V6.006h1.165v1.196h0.615v0.89h-0.615v2.103c0,0.186,0.081,0.275,0.38,0.275
				c0.098,0,0.162-0.008,0.235-0.024v0.915c-0.186,0.023-0.372,0.048-0.559,0.048c-0.76,0-1.222-0.186-1.222-1.083V8.092h-0.534
				V7.202z"/>
		</g>
		<g>
			<path fill="#FFFFFF" d="M89.778,5.229c0.349,0,0.68,0.299,0.68,0.671c0,0.356-0.308,0.687-0.68,0.687
				c-0.388,0-0.68-0.348-0.68-0.671C89.099,5.577,89.391,5.229,89.778,5.229z M89.196,7.202h1.165v4.158h-1.165V7.202z"/>
		</g>
		<g>
			<path fill="#FFFFFF" d="M90.984,7.202h1.278l0.883,2.75h0.016l0.883-2.75h1.278L93.76,11.36h-1.214L90.984,7.202z"/>
		</g>
		<g>
			<path fill="#FFFFFF" d="M96.957,9.612c0.049,0.486,0.348,0.971,0.972,0.971c0.355,0,0.671-0.17,0.833-0.494l1.133,0.089
				c-0.283,0.85-1.044,1.294-2.023,1.294c-1.254,0-2.128-0.857-2.128-2.183c0-1.343,0.874-2.2,2.128-2.2
				c1.255,0,2.129,0.857,2.129,2.2v0.323H96.957z M98.835,8.869c-0.041-0.404-0.349-0.89-0.906-0.89c-0.607,0-0.907,0.42-0.972,0.89
				H98.835z"/>
		</g>
		<g>
			<path fill="#FFFFFF" d="M64.035,20.913h-0.017c-0.186,0.315-0.518,0.817-1.351,0.817c-1.117,0-1.951-0.874-1.951-2.135
				c0-1.488,1.028-2.087,1.87-2.087c0.897,0,1.262,0.51,1.432,0.769h0.017v-2.742h0.632v6.082h-0.632V20.913z M62.708,18.074
				c-0.696,0-1.312,0.468-1.312,1.537c0,0.841,0.438,1.552,1.287,1.552c0.851,0,1.352-0.687,1.352-1.537
				C64.035,18.567,63.38,18.074,62.708,18.074z"/>
		</g>
		<g>
			<path fill="#FFFFFF" d="M66.172,15.535c0.267,0,0.478,0.21,0.478,0.478c0,0.266-0.211,0.477-0.478,0.477
				c-0.268,0-0.478-0.211-0.478-0.477C65.694,15.745,65.904,15.535,66.172,15.535z M65.856,17.572h0.631v4.044h-0.631V17.572z"/>
		</g>
		<g>
			<path fill="#FFFFFF" d="M70.776,17.572h0.632v3.656c0,1.262-0.583,2.086-2.097,2.086c-0.987,0-1.651-0.485-1.716-1.326
				l0.681-0.032c0.056,0.324,0.234,0.792,1.051,0.792c1.166,0,1.449-0.76,1.449-1.69v-0.332H70.76
				c-0.299,0.664-0.898,0.89-1.44,0.89c-1.189,0-1.861-0.906-1.861-2.07c0-1.254,0.874-2.087,1.935-2.087
				c0.542,0,1.052,0.292,1.367,0.801h0.017V17.572z M69.449,18.026c-0.736,0-1.311,0.485-1.311,1.463
				c0,0.914,0.38,1.562,1.286,1.562c0.64,0,1.352-0.485,1.352-1.569C70.776,18.746,70.348,18.026,69.449,18.026z"/>
		</g>
		<g>
			<path fill="#FFFFFF" d="M72.913,15.535c0.267,0,0.478,0.21,0.478,0.478c0,0.266-0.211,0.477-0.478,0.477
				c-0.268,0-0.478-0.211-0.478-0.477C72.436,15.745,72.646,15.535,72.913,15.535z M72.598,17.572h0.631v4.044h-0.631V17.572z"/>
		</g>
		<g>
			<path fill="#FFFFFF" d="M74.063,17.572h0.753v-1.18h0.631v1.18h0.816v0.519h-0.816v2.482c0,0.364,0.105,0.526,0.388,0.526
				c0.146,0,0.3-0.009,0.421-0.024v0.566c-0.227,0.017-0.444,0.024-0.639,0.024c-0.543,0-0.801-0.211-0.801-1.019v-2.556h-0.753
				V17.572z"/>
		</g>
		<g>
			<path fill="#FFFFFF" d="M79.743,21.083h-0.016c-0.284,0.502-0.891,0.647-1.359,0.647c-0.964,0-1.465-0.566-1.465-1.206
				c0-0.744,0.404-1.18,1.513-1.237c0.445-0.024,0.883-0.049,1.327-0.064v-0.307c0-0.519-0.219-0.938-1.027-0.938
				c-0.744,0-0.988,0.315-1.068,0.768h-0.624c0.13-0.907,0.745-1.286,1.7-1.286c1.085,0,1.65,0.494,1.65,1.359v2.005
				c0,0.25,0.033,0.566,0.058,0.792h-0.688V21.083z M79.743,19.7l-1.068,0.049c-0.688,0.032-1.092,0.218-1.092,0.744
				c0,0.405,0.348,0.72,0.922,0.72c0.55,0,1.238-0.307,1.238-1.011V19.7z"/>
		</g>
		<g>
			<path fill="#FFFFFF" d="M81.597,15.535h0.631v6.082h-0.631V15.535z"/>
		</g>
		<g>
			<path fill="#FFFFFF" d="M64.48,30.732c-0.348,0.77-0.931,1.256-1.861,1.256c-1.133,0-1.902-0.859-1.902-1.983
				c0-1.358,0.744-2.288,1.935-2.288c1.149,0,1.935,0.729,1.935,2.103v0.178h-3.189c0,0.938,0.575,1.425,1.255,1.425
				c0.729,0,1.045-0.455,1.182-0.786L64.48,30.732z M63.906,29.479c-0.09-0.735-0.51-1.196-1.238-1.196
				c-0.826,0-1.207,0.646-1.255,1.196H63.906z"/>
		</g>
		<g>
			<path fill="#FFFFFF" d="M68.535,31.17h-0.017c-0.187,0.316-0.518,0.818-1.352,0.818c-1.116,0-1.95-0.875-1.95-2.136
				c0-1.489,1.028-2.087,1.869-2.087c0.898,0,1.263,0.51,1.433,0.768h0.017v-2.742h0.631v6.083h-0.631V31.17z M67.208,28.332
				c-0.696,0-1.312,0.469-1.312,1.536c0,0.842,0.438,1.554,1.287,1.554s1.352-0.689,1.352-1.538
				C68.535,28.826,67.88,28.332,67.208,28.332z"/>
		</g>
		<g>
			<path fill="#FFFFFF" d="M73.034,31.234h-0.017c-0.274,0.518-0.711,0.754-1.286,0.754c-0.591,0-1.352-0.301-1.352-1.497V27.83
				h0.631v2.491c0,0.841,0.438,1.101,0.891,1.101c0.592,0,1.133-0.455,1.133-1.296V27.83h0.632v4.045h-0.632V31.234z"/>
		</g>
		<g>
			<path fill="#FFFFFF" d="M77.857,29.182c-0.104-0.309-0.331-0.898-1.101-0.898c-0.801,0-1.416,0.615-1.416,1.593
				c0,0.801,0.413,1.546,1.384,1.546c0.696,0,0.996-0.479,1.133-0.938l0.672,0.08c-0.21,0.696-0.712,1.425-1.813,1.425
				c-1.344,0-2.056-1.004-2.056-2.12c0-1.351,0.979-2.151,2.063-2.151c0.883,0,1.619,0.436,1.781,1.4L77.857,29.182z"/>
		</g>
		<g>
			<path fill="#FFFFFF" d="M82.002,31.34h-0.017c-0.283,0.502-0.89,0.648-1.36,0.648c-0.963,0-1.464-0.566-1.464-1.207
				c0-0.743,0.404-1.181,1.514-1.237c0.444-0.023,0.882-0.049,1.327-0.064v-0.308c0-0.516-0.22-0.938-1.028-0.938
				c-0.745,0-0.987,0.314-1.068,0.77h-0.623c0.13-0.906,0.744-1.287,1.699-1.287c1.085,0,1.651,0.492,1.651,1.359v2.006
				c0,0.25,0.032,0.566,0.057,0.793h-0.688V31.34z M82.002,29.958l-1.068,0.047c-0.688,0.033-1.093,0.219-1.093,0.745
				c0,0.404,0.348,0.719,0.923,0.719c0.55,0,1.238-0.307,1.238-1.011V29.958z"/>
		</g>
		<g>
			<path fill="#FFFFFF" d="M83.523,27.83h0.752v-1.181h0.631v1.181h0.818v0.518h-0.818v2.482c0,0.363,0.106,0.525,0.389,0.525
				c0.146,0,0.3-0.008,0.422-0.023v0.566c-0.228,0.016-0.446,0.023-0.64,0.023c-0.543,0-0.802-0.209-0.802-1.02v-2.555h-0.752V27.83
				z"/>
		</g>
		<g>
			<path fill="#FFFFFF" d="M86.874,25.792c0.267,0,0.477,0.211,0.477,0.478c0,0.267-0.21,0.477-0.477,0.477
				c-0.268,0-0.479-0.21-0.479-0.477C86.396,26.002,86.606,25.792,86.874,25.792z M86.558,27.83h0.631v4.045h-0.631V27.83z"/>
		</g>
		<g>
			<path fill="#FFFFFF" d="M90.248,31.988c-1.465,0-2.088-1.061-2.088-2.136c0-1.077,0.728-2.136,2.088-2.136
				c1.465,0,2.088,1.059,2.088,2.136C92.336,30.928,91.607,31.988,90.248,31.988z M90.248,31.422c0.874,0,1.408-0.656,1.408-1.569
				c0-0.915-0.534-1.569-1.408-1.569s-1.408,0.654-1.408,1.569C88.84,30.766,89.374,31.422,90.248,31.422z"/>
		</g>
		<g>
			<path fill="#FFFFFF" d="M95.985,29.431c0-0.841-0.437-1.099-0.89-1.099c-0.591,0-1.133,0.453-1.133,1.294v2.249h-0.632V27.83
				h0.632v0.688h0.017c0.274-0.518,0.712-0.752,1.286-0.752c0.485,0,1.352,0.25,1.352,1.391v2.719h-0.632V29.431z"/>
		</g>
	</g>
	<g>
		<g>
			<path fill="#FFFFFF" d="M5.745,5.502c0-0.133,0.106-0.252,0.253-0.252h5.414c0.146,0,0.252,0.12,0.252,0.252v1.09
				c0,0.133-0.106,0.252-0.252,0.252H7.474v2.181h3.286c0.133,0,0.252,0.119,0.252,0.252v1.104c0,0.146-0.12,0.252-0.252,0.252
				H7.474v2.327h3.938c0.146,0,0.252,0.12,0.252,0.253v1.09c0,0.134-0.106,0.253-0.252,0.253H5.998
				c-0.147,0-0.253-0.119-0.253-0.253V5.502z"/>
		</g>
	</g>
	<g>
		<g>
			<path fill="#FFFFFF" d="M23.759,23.1c0-0.133,0.106-0.252,0.239-0.252h3.152c2.568,0,4.669,2.086,4.669,4.639
				c0,2.579-2.102,4.667-4.669,4.667h-3.152c-0.133,0-0.239-0.12-0.239-0.253V23.1z M26.992,30.532c1.729,0,2.993-1.304,2.993-3.045
				c0-1.728-1.264-3.03-2.993-3.03h-1.517v6.076H26.992z"/>
		</g>
	</g>
	<g>
		<g>
			<path fill="#FFFFFF" d="M44.469,23.101c0-0.133,0.12-0.253,0.254-0.253h1.237c0.132,0,0.252,0.12,0.252,0.253v8.801
				c0,0.133-0.12,0.251-0.252,0.251h-1.237c-0.134,0-0.254-0.118-0.254-0.251V23.101z"/>
		</g>
	</g>
	<g>
		<g>
			<path fill="#FFFFFF" d="M44.213,42.293h-2.035c-0.146,0-0.253-0.119-0.253-0.251V40.95c0-0.133,0.106-0.251,0.253-0.251h5.813
				c0.146,0,0.253,0.118,0.253,0.251v1.092c0,0.132-0.106,0.251-0.253,0.251h-2.035v7.458c0,0.133-0.119,0.252-0.253,0.252h-1.236
				c-0.134,0-0.253-0.119-0.253-0.252V42.293z"/>
		</g>
		<g>
			<path fill="#FFDD15" d="M49.613,47.812c0.598,0,1.104,0.503,1.104,1.103c0,0.597-0.506,1.089-1.104,1.089
				c-0.6,0-1.091-0.492-1.091-1.089C48.522,48.314,49.014,47.812,49.613,47.812z"/>
		</g>
	</g>
	<g>
		<path fill="#FFFFFF" d="M55.063,37.189H35.617V17.757h19.446V37.189z M37.268,35.54h16.146V19.406H37.268V35.54z"/>
	</g>
	<g>
		<path fill="#FFFFFF" d="M55.063,19.434H0V0h55.063V19.434z M1.65,17.784h51.763V1.649H1.65V17.784z"/>
	</g>
	<g>
		<path fill="#FFFFFF" d="M37.212,37.217H0.026V17.784h37.186V37.217z M1.676,35.567h33.886V19.434H1.676V35.567z"/>
	</g>
	<g>
		<path fill="#FFFFFF" d="M55.036,55H0.026V35.567h55.01V55z M1.676,53.351h51.71V37.217H1.676V53.351z"/>
	</g>
</g>
</svg>
