<svg id="Layer_1" enable-background="new 0 0 64 64" height="512" viewBox="0 0 64 64" width="512" xmlns="http://www.w3.org/2000/svg"><path d="m14 56h-3.999c-1.248 0-2.191-1.13-1.968-2.358l3.571-21.642h40.792l3.571 21.642c.223 1.228-.72 2.358-1.968 2.358h-3.999z" fill="#e3eeec"/><path d="m53.39 38h-6.39l1.5 9h6.37z" fill="#d0e1dd"/><path d="m10.61 38h6.39l-1.458 9h-6.412z" fill="#d0e1dd"/><path d="m25.5 41-.5 3h-3l.5-3z" fill="#c4d9d5"/><path d="m26 38-.5 3h-3l.5-3z" fill="#b5d0ca"/><path d="m29 38-.5 3h-3l.5-3z" fill="#c4d9d5"/><path d="m28.5 41-.5 3h-3l.5-3z" fill="#b5d0ca"/><path d="m19.5 41-.5 3h-3l.5-3z" fill="#c4d9d5"/><path d="m20 38-.5 3h-3l.5-3z" fill="#b5d0ca"/><path d="m23 38-.5 3h-3l.5-3z" fill="#c4d9d5"/><path d="m22.5 41-.5 3h-3l.5-3z" fill="#b5d0ca"/><path d="m32 38v3h-3.5l.5-3z" fill="#b5d0ca"/><path d="m35.5 41h-3.5v-3h3z" fill="#c4d9d5"/><path d="m36 44h-4v-3h3.5z" fill="#b5d0ca"/><path d="m32 41v3h-4l.5-3z" fill="#c4d9d5"/><path d="m38.5 41h-3l-.5-3h3z" fill="#b5d0ca"/><path d="m39 44h-3l-.5-3h3z" fill="#c4d9d5"/><path d="m42 44h-3l-.5-3h3z" fill="#b5d0ca"/><path d="m41.5 41h-3l-.5-3h3z" fill="#c4d9d5"/><path d="m45 44h-3l-.5-3h3z" fill="#c4d9d5"/><path d="m44.5 41h-3l-.5-3h3z" fill="#b5d0ca"/><path d="m48 44h-3l-.5-3h3z" fill="#b5d0ca"/><path d="m47.5 41h-3l-.5-3h3z" fill="#c4d9d5"/><path d="m25.042 44-.5 3h-3l.5-3z" fill="#b5d0ca"/><path d="m28.04 44-.5 3h-3l.5-3z" fill="#c4d9d5"/><path d="m19.042 44-.5 3h-3l.5-3z" fill="#b5d0ca"/><path d="m22.042 44-.5 3h-3l.5-3z" fill="#c4d9d5"/><path d="m39.5 47h-3l-.5-3h3z" fill="#b5d0ca"/><path d="m42.502 47h-3l-.5-3h3z" fill="#c4d9d5"/><path d="m45.502 47h-3l-.5-3h3z" fill="#b5d0ca"/><path d="m48.502 47h-3l-.5-3h3z" fill="#c4d9d5"/><path d="m41 56-1.5-9h-14.958l-1.542 9z" fill="#d0e1dd"/><g fill="#c4d9d5"><path d="m20 36.5h-2c-.276 0-.5-.224-.5-.5s.224-.5.5-.5h2c.276 0 .5.224.5.5s-.224.5-.5.5z"/><path d="m24 36.5h-2c-.276 0-.5-.224-.5-.5s.224-.5.5-.5h2c.276 0 .5.224.5.5s-.224.5-.5.5z"/><path d="m28 36.5h-2c-.276 0-.5-.224-.5-.5s.224-.5.5-.5h2c.276 0 .5.224.5.5s-.224.5-.5.5z"/><path d="m33 36.5h-2c-.276 0-.5-.224-.5-.5s.224-.5.5-.5h2c.276 0 .5.224.5.5s-.224.5-.5.5z"/><path d="m38 36.5h-2c-.276 0-.5-.224-.5-.5s.224-.5.5-.5h2c.276 0 .5.224.5.5s-.224.5-.5.5z"/><path d="m42 36.5h-2c-.276 0-.5-.224-.5-.5s.224-.5.5-.5h2c.276 0 .5.224.5.5s-.224.5-.5.5z"/><path d="m46 36.5h-2c-.276 0-.5-.224-.5-.5s.224-.5.5-.5h2c.276 0 .5.224.5.5s-.224.5-.5.5z"/></g><path d="m36.5 47h-8.96l.5-3h7.96z" fill="#bad3ce"/><path d="m55.97 10.36-3.57 21.64h-40.8l-3.57-21.64c-.22-1.23.72-2.36 1.97-2.36h44c.65 0 1.21.3 1.56.76.35.43.52 1 .41 1.6z" fill="#333"/><circle cx="32.016" cy="9.994" fill="#8cb5ad" r=".5"/><path d="m55.97 10.36-3.57 21.64h-40.8l43.96-23.24c.35.43.52 1 .41 1.6z" fill="#383838"/><path d="m48.491 43.905-.498-2.987-.5-3c-.04-.241-.248-.418-.493-.418h-3-3-3-3-3-3-3-3-3-3c-.245 0-.453.177-.493.418l-.5 3-.5 3c-.011.064-.004.128.01.19l-.468 2.81c-.024.145.017.293.112.405s.234.177.381.177h3 3 2.999.001 2.458.54 8.96.5 2.5.001.001 3 3 3c.147 0 .287-.064.381-.177.095-.112.136-.261.112-.405l-.5-3c0-.005-.003-.008-.004-.013zm-15.991-5.405h2.076l.333 2h-2.409zm0 3h2.576l.333 2h-2.909zm-3.076-3h2.076v2h-2.41zm-.5 3h2.576v2h-2.91zm-10.806 5h-1.986l.333-2h1.986zm.458-3h-1.986l.333-2h1.986zm-1.486-3 .333-2h1.986l-.333 2zm4.028 6h-1.986l.333-2h1.986zm.458-3h-1.986l.333-2h1.986zm-1.486-3 .333-2h1.986l-.333 2zm4.027 6h-1.985l.333-2h1.985zm.459-3h-1.986l.333-2h1.986zm-1.486-3 .333-2h1.986l-.333 2zm4.027 6h-.117-1.868l.333-2h1.985zm.459-3h-1.986l.333-2h1.986zm-1.486-3 .333-2h1.986l-.333 2zm2.04 6 .333-2h3.537 3.576l.333 2zm7.46-8h1.986l.333 2h-1.986zm.834 5-.333-2h1.986l.333 2zm.576 3h-.076l-.333-2h1.986l.333 2zm1.59-8h1.986l.333 2h-1.986zm.834 5-.333-2h1.986l.333 2zm.502 3-.333-2h1.986l.333 2zm1.664-8h1.986l.333 2h-1.986zm.834 5-.333-2h1.986l.333 2zm.502 3-.333-2h1.986l.333 2zm1.664-8h1.986l.333 2h-1.986zm.834 5-.333-2h1.986l.333 2zm.502 3-.333-2h1.986l.333 2z"/><path d="m24.299 48.444c-.281-.05-.53.141-.574.413l-.819 5.063c-.044.272.141.529.414.573.027.005.054.007.08.007.241 0 .454-.175.493-.42l.819-5.063c.044-.272-.141-.529-.413-.573z"/><path d="m39.7 48.538c-.272.045-.457.302-.412.574l.819 4.969c.04.245.252.419.493.419.027 0 .054-.002.082-.007.272-.045.457-.302.412-.574l-.819-4.969c-.045-.272-.297-.461-.575-.412z"/><path d="m53.894 38.009c0-.003.002-.006.002-.009 0-.033-.013-.062-.019-.093l-.988-5.988c-.04-.242-.249-.419-.493-.419h-40.792c-.245 0-.454.177-.493.419l-.988 5.988c-.006.031-.019.06-.019.093 0 .003.002.006.002.009l-2.565 15.544c-.133.731.064 1.479.54 2.049.477.571 1.176.898 1.919.898h44c.744 0 1.443-.327 1.919-.898.476-.57.673-1.317.542-2.04zm1.257 16.952c-.286.343-.705.539-1.151.539h-44c-.446 0-.866-.196-1.152-.539-.286-.342-.404-.79-.323-1.237l1.028-6.224h3.447c.276 0 .5-.224.5-.5s-.224-.5-.5-.5h-3.282l1.32-8h3.962c.276 0 .5-.224.5-.5s-.224-.5-.5-.5h-3.797l.825-5h39.943l.825 5h-3.796c-.276 0-.5.224-.5.5s.224.5.5.5h3.962l1.32 8h-3.282c-.276 0-.5.224-.5.5s.224.5.5.5h3.447l1.029 6.232c.079.439-.039.887-.325 1.229z"/><path d="m8.087 8.396c-.478.57-.676 1.318-.546 2.046l3.21 19.64c.045.272.305.461.574.412.272-.044.458-.302.413-.574l-3.212-19.648c-.079-.442.04-.892.328-1.235.285-.342.705-.537 1.15-.537h43.991c.446 0 .865.195 1.151.537.287.343.406.793.326 1.242l-3.21 19.64c-.044.272.141.53.413.574.027.005.054.007.081.007.241 0 .453-.174.493-.419l3.208-19.633c.131-.734-.067-1.482-.545-2.053-.475-.569-1.174-.895-1.916-.895h-43.992c-.742 0-1.441.326-1.917.896z"/><path d="m18 36.5h2c.276 0 .5-.224.5-.5s-.224-.5-.5-.5h-2c-.276 0-.5.224-.5.5s.224.5.5.5z"/><path d="m22 36.5h2c.276 0 .5-.224.5-.5s-.224-.5-.5-.5h-2c-.276 0-.5.224-.5.5s.224.5.5.5z"/><path d="m26 36.5h2c.276 0 .5-.224.5-.5s-.224-.5-.5-.5h-2c-.276 0-.5.224-.5.5s.224.5.5.5z"/><path d="m31 36.5h2c.276 0 .5-.224.5-.5s-.224-.5-.5-.5h-2c-.276 0-.5.224-.5.5s.224.5.5.5z"/><path d="m36 36.5h2c.276 0 .5-.224.5-.5s-.224-.5-.5-.5h-2c-.276 0-.5.224-.5.5s.224.5.5.5z"/><path d="m40 36.5h2c.276 0 .5-.224.5-.5s-.224-.5-.5-.5h-2c-.276 0-.5.224-.5.5s.224.5.5.5z"/><path d="m44 36.5h2c.276 0 .5-.224.5-.5s-.224-.5-.5-.5h-2c-.276 0-.5.224-.5.5s.224.5.5.5z"/><circle cx="32.016" cy="9.994" r=".5"/></svg>